# This file uses meters as units for non-parametric coordinates.

g default
v -61.221024 33.685375 126.279305
v 82.493324 33.685375 126.279305
v -61.221024 33.685387 -123.701149
v 82.493324 33.685387 -123.701149
v -51.589867 33.685379 126.279327
v -51.589867 33.685387 -123.701172
v 82.493324 1.132895 5.267982
v -51.589867 1.132895 5.267982
v -164.781006 1.132895 5.267982
v -130.318329 33.685387 -10.039808
v -51.589867 33.685387 -10.039808
v 82.493324 33.685387 -10.039808
v 82.493324 33.685387 25.709654
v -51.589867 33.685387 25.709654
v -123.415009 33.685387 25.709654
v -132.354813 31.787750 -7.946879
v -51.589867 31.787750 -7.946879
v 82.493317 31.787750 -7.946879
v -125.995384 31.682203 23.296061
v -51.589867 31.682203 23.296061
v 82.493324 31.682203 23.296061
v 82.493324 1.084685 6.458487
v -51.589867 1.084685 6.458487
v -162.165009 1.084685 6.458487
v -61.221024 35.674850 126.279305
v -47.690697 35.674843 126.279327
v -47.690697 35.674850 25.709654
v -123.415009 35.674850 25.709654
v -130.318329 35.674850 -10.039808
v -47.690697 35.674850 -10.039808
v -47.690697 35.674850 -123.701172
v -61.221024 35.674847 -123.701149
v -132.354813 33.777214 -7.946879
v -47.690697 33.777214 -7.946879
v -125.995384 33.671665 23.296061
v -47.690697 33.671669 23.296061
v -47.690697 3.074150 6.458487
v -162.165009 3.074148 6.458487
v -47.690697 3.122360 5.267982
v -164.781006 3.122358 5.267982
v -47.129963 33.685387 -123.701172
v -47.129963 35.674850 -123.701172
v -49.229271 35.674850 -10.039808
v -49.291145 33.777214 -7.946879
v -50.276318 3.122358 5.267982
v -50.196838 3.074148 6.458487
v -49.097931 33.671665 23.296061
v -49.019539 35.674850 25.709654
v -47.129963 35.674843 126.279327
v -47.129963 33.685379 126.279327
v -64.018188 33.685387 121.756195
v -64.018188 35.674850 121.756195
v -47.214947 35.674847 121.756218
v -47.690697 35.674847 121.756218
v -51.589867 33.685387 121.756218
v 82.493324 33.685387 121.756195
v 82.493324 33.685383 -116.305611
v -51.589867 33.685383 -116.305634
v -47.690697 35.674847 -116.305634
v -47.266556 35.674847 -116.305634
v -65.716934 35.674847 -116.305611
v -65.716934 33.685383 -116.305611
v 78.271225 33.685387 -123.701149
v 78.271225 33.685383 -116.305603
v 78.271225 33.685387 -10.039808
v 78.271217 31.787750 -7.946879
v 78.271225 1.132895 5.267982
v 78.271225 1.084685 6.458487
v 78.271225 31.682203 23.296061
v 78.271225 33.685387 25.709654
v 78.271225 33.685387 121.756195
v 78.271225 33.685375 126.279305
v -45.465733 33.685387 -123.701172
v -45.465733 33.685383 -116.305634
v -45.465733 33.685387 -10.039808
v -45.465733 31.787750 -7.946879
v -45.465733 1.132895 5.267982
v -45.465733 1.084685 6.458487
v -45.465733 31.682203 23.296061
v -45.465733 33.685387 25.709654
v -45.465733 33.685387 121.756218
v -45.465733 33.685379 126.279327
v 82.493317 33.685387 -101.257950
v 78.271225 33.685387 -101.257942
v -45.465733 33.685387 -101.257965
v -51.589867 33.685387 -101.257965
v -47.690697 35.674850 -101.257965
v -47.544483 35.674850 -101.257965
v -74.864746 35.674850 -101.257950
v -74.864746 33.685387 -101.257950
v -79.445206 33.685387 96.810234
v -79.445206 35.674850 96.810234
v -47.683651 35.674850 96.810249
v -47.690697 35.674850 96.810249
v -51.589870 33.685387 96.810249
v -45.465733 33.685387 96.810249
v 78.271225 33.685387 96.810234
v 82.493332 33.685387 96.810234
vt 0.123035 0.541967
vt 0.123035 0.541996
vt 0.407460 0.541996
vt 0.407460 0.547311
vt 0.123035 0.038109
vt 0.123035 0.021219
vt 0.407460 0.021219
vt 0.407460 0.038109
vt 0.550469 0.038109
vt 0.550469 0.021219
vt 0.915370 0.021219
vt 0.915370 0.038109
vt 0.550469 0.548150
vt 0.550469 0.541996
vt 0.915370 0.541996
vt 0.915370 0.541411
vt 0.542097 0.548398
vt 0.542097 0.541996
vt 0.542097 0.038109
vt 0.542097 0.021219
vt 0.417115 0.038109
vt 0.417115 0.021219
vt 0.484471 0.021219
vt 0.484471 0.038109
vt 0.417115 0.547625
vt 0.417115 0.541995
vt 0.484471 0.541996
vt 0.484471 0.552021
vt 0.489233 0.552339
vt 0.489233 0.541995
vt 0.489233 0.038109
vt 0.489233 0.021219
vt 0.005150 0.539752
vt 0.005150 0.557593
vt 0.005150 0.541996
vt 0.005150 0.539752
vt 0.123035 0.557593
vt 0.407460 0.557593
vt 0.407460 0.844916
vt 0.123035 0.669023
vt 0.123035 0.669023
vt 0.407460 0.844916
vt 0.550469 0.557593
vt 0.915370 0.557593
vt 1.005150 0.557593
vt 1.005150 0.539752
vt 1.005150 0.539752
vt 1.005150 0.541996
vt 0.915370 0.650700
vt 0.550469 0.872532
vt 0.550469 0.872532
vt 0.915370 0.650700
vt 0.542097 0.557593
vt 0.542097 0.880678
vt 0.542097 0.880678
vt 0.417115 0.557593
vt 0.484471 0.557593
vt 0.484471 0.999928
vt 0.417115 0.855239
vt 0.417115 0.855239
vt 0.484471 0.999928
vt 0.489233 0.557593
vt 0.489233 1.010393
vt 0.489233 1.010393
vt 1.005150 0.596121
vt 1.005150 0.596121
vt 0.005150 0.596121
vt 0.005150 0.596121
vt 0.023244 0.607311
vt 0.023244 0.607311
vt 0.023244 0.540092
vt 0.023244 0.541995
vt 0.023244 0.557593
vt 0.005150 0.038109
vt 0.005150 0.021219
vt 0.023244 0.021219
vt 0.023244 0.038109
vt 0.975565 0.038109
vt 0.975565 0.021219
vt 1.005150 0.021219
vt 1.005150 0.038108
vt 0.975565 0.541996
vt 0.975565 0.557593
vt 0.975565 0.540299
vt 0.975565 0.614106
vt 0.975565 0.614106
vt 0.975565 0.533095
vt 1.005150 0.533095
vt 0.550469 0.533095
vt 0.915370 0.533095
vt 0.542097 0.533095
vt 0.489233 0.533095
vt 0.484471 0.533095
vt 0.417115 0.533095
vt 0.407460 0.533095
vt 0.123035 0.533095
vt 0.005150 0.533095
vt 0.023244 0.533095
vn 0.000000 1.000000 0.000000
vn 0.000000 1.000000 0.000000
vn -0.000000 0.998519 -0.054410
vn -0.000000 0.999297 -0.037495
vn 0.000000 1.000000 0.000000
vn 0.000000 1.000000 0.000000
vn 0.000000 0.999629 -0.027239
vn 0.000000 0.999629 -0.027239
vn 0.000000 0.999793 0.020332
vn 0.000000 0.999793 0.020332
vn -0.000000 1.000000 -0.000000
vn 0.000000 1.000000 -0.000000
vn 0.000000 0.999553 0.029883
vn 0.000000 0.999007 0.044549
vn 0.000000 1.000000 0.000000
vn -0.000000 1.000000 -0.000000
vn -0.000000 0.421557 0.906802
vn -0.000000 0.418571 0.908184
vn 0.000000 0.425546 0.904937
vn -0.000000 0.425546 0.904937
vn 0.000000 0.508477 -0.861076
vn 0.000000 0.508477 -0.861076
vn 0.000000 0.508232 -0.861220
vn 0.000000 0.508232 -0.861220
vn -0.000000 0.504248 -0.863559
vn -0.000001 0.501034 -0.865428
vn -0.000001 0.515851 -0.856679
vn -0.000000 0.511555 -0.859251
vn -0.000000 0.429623 0.903009
vn -0.000000 0.430831 0.902433
vn -0.000000 0.424756 0.905308
vn -0.000000 0.424755 0.905308
vn -0.000002 0.000000 1.000000
vn 0.000000 0.000000 -1.000000
vn 0.000000 0.000000 -1.000000
vn -0.000002 0.000000 1.000000
vn 0.454487 -0.890753 -0.000000
vn 0.454301 -0.890388 0.028635
vn 0.454398 -0.890578 0.019840
vn 0.454487 -0.890753 -0.000000
vn -0.843089 0.000000 0.537774
vn -0.850505 0.000000 0.525967
vn -0.850505 0.000000 0.525967
vn -0.846678 0.000000 0.532106
vn 0.454381 -0.890546 -0.021592
vn 0.454487 -0.890754 0.000000
vn 0.454487 -0.890754 0.000000
vn 0.454438 -0.890659 -0.014600
vn 0.000000 0.000000 1.000000
vn -0.000002 0.000000 -1.000000
vn -0.000002 0.000000 -1.000000
vn 0.000000 0.000000 1.000000
vn -0.854492 0.000000 -0.519465
vn -0.850274 0.000000 -0.526341
vn -0.852507 0.000000 -0.522715
vn -0.854492 0.000000 -0.519465
vn 0.207210 -0.406114 -0.890020
vn 0.220197 -0.431566 -0.874794
vn -0.390364 0.000000 -0.920661
vn -0.441681 0.000000 -0.897172
vn 0.247029 -0.484154 0.839388
vn 0.254946 -0.499670 0.827848
vn 0.248669 -0.487368 0.837040
vn 0.257533 -0.504741 0.823962
vn -0.421180 0.000000 0.906977
vn -0.433384 0.000000 0.901210
vn -0.469096 0.000000 0.883147
vn -0.421648 0.000000 0.906760
vn 0.217039 -0.425377 -0.878606
vn 0.208771 -0.409172 -0.888253
vn -0.377400 0.000000 -0.926050
vn -0.377400 0.000000 -0.926051
vn -0.414211 0.000000 0.910181
vn -0.414211 0.000000 0.910181
vn -0.000002 0.000000 -1.000000
vn -0.000002 0.000000 -1.000000
vn 0.000000 0.998033 0.062696
vn -0.000000 1.000000 -0.000000
vn 0.000000 0.406382 0.913703
vn 0.000000 0.413718 0.910405
vn 0.000000 0.584312 -0.811529
vn 0.000000 0.490466 -0.871460
vn 0.000000 0.996772 -0.080286
vn 0.000000 1.000000 0.000000
vn -0.000002 0.000000 1.000000
vn -0.000002 0.000000 1.000000
vn -0.850505 0.000000 0.525967
vn -0.850506 0.000000 0.525966
vn -0.850506 0.000000 0.525966
vn -0.850505 0.000000 0.525967
vn 0.000000 1.000000 0.000001
vn 0.000000 1.000000 0.000001
vn 0.000000 1.000000 0.000000
vn 0.000000 1.000000 0.000000
vn 0.000000 -1.000000 -0.000001
vn 0.000000 -1.000000 -0.000001
vn 0.454486 -0.890754 -0.000001
vn 0.454486 -0.890754 -0.000000
vn 0.454486 -0.890754 -0.000000
vn 0.454486 -0.890754 -0.000001
vn 0.000000 1.000000 0.000002
vn 0.000000 1.000000 0.000003
vn 0.000000 1.000000 0.000000
vn 0.000000 1.000000 0.000000
vn -0.000000 1.000000 -0.000000
vn -0.000000 1.000000 0.000000
vn 0.000000 1.000000 0.000000
vn -0.000000 1.000000 0.000001
vn 0.454487 -0.890753 -0.000000
vn 0.454487 -0.890753 0.000000
vn 0.454486 -0.890754 -0.000000
vn 0.454486 -0.890754 -0.000000
vn -0.000000 1.000000 -0.000000
vn 0.000000 -1.000000 -0.000001
vn 0.000000 -1.000000 -0.000001
vn -0.000000 1.000000 0.000001
vn -0.000000 1.000000 -0.000000
vn -0.000000 1.000000 0.000001
vn -0.854492 0.000000 -0.519465
vn -0.854492 0.000000 -0.519465
vn -0.854492 0.000000 -0.519465
vn -0.854492 0.000000 -0.519465
vn -0.000000 1.000000 0.000000
vn -0.000000 1.000000 0.000001
vn 0.000000 0.999793 0.020332
vn 0.000000 1.000000 -0.000000
vn 0.000000 0.425546 0.904937
vn 0.000000 0.424756 0.905308
vn 0.000000 0.508232 -0.861220
vn 0.000000 0.508477 -0.861076
vn 0.000000 0.999629 -0.027239
vn 0.000000 1.000000 -0.000000
vn 0.000000 1.000000 0.000002
vn 0.000000 1.000000 0.000000
vn 0.000000 1.000000 0.000000
vn 0.000000 1.000000 0.000000
vn 0.000000 0.999793 0.020332
vn 0.000000 1.000000 -0.000000
vn 0.000000 0.425546 0.904937
vn 0.000000 0.424756 0.905308
vn 0.000000 0.508232 -0.861220
vn 0.000000 0.508477 -0.861076
vn 0.000000 0.999629 -0.027239
vn 0.000000 1.000000 0.000000
vn 0.000000 1.000000 0.000002
vn 0.000000 1.000000 0.000000
vn 0.000000 -1.000000 0.000000
vn 0.000000 -1.000000 0.000000
vn 0.000000 -1.000000 -0.000000
vn 0.000000 -1.000000 -0.000000
s 1
g pPlane1
f 93/1/1 94/2/2 27/3/3 48/4/4
s 2
f 97/5/5 98/6/6 13/7/7 70/8/8
f 65/9/9 12/10/10 83/11/11 84/12/12
s 1
f 43/13/13 30/14/14 87/15/15 88/16/16
f 44/17/17 34/18/18 30/14/14 43/13/13
s 2
f 66/19/19 18/20/20 12/10/10 65/9/9
f 69/21/21 21/22/22 22/23/23 68/24/24
s 1
f 47/25/25 36/26/26 37/27/27 46/28/28
f 45/29/29 39/30/30 34/18/18 44/17/17
s 2
f 67/31/31 7/32/32 18/20/20 66/19/19
s 1
f 48/4/4 27/3/3 36/26/26 47/25/25
s 2
f 70/8/8 13/7/7 21/22/22 69/21/21
f 68/24/24 22/23/23 7/32/32 67/31/31
s 1
f 46/28/28 37/27/27 39/30/30 45/29/29
s 5
f 50/33/33 5/34/34 26/35/35 49/36/36
s 6
f 95/37/37 14/38/38 27/3/39 94/2/40
s 7
f 15/39/41 91/40/42 92/41/43 28/42/44
s 6
f 11/43/45 86/44/46 87/15/47 30/14/48
s 9
f 6/45/49 41/46/50 42/47/51 31/48/52
s 10
f 90/49/53 10/50/54 29/51/55 89/52/56
s 6
f 17/53/57 11/43/45 30/14/48 34/18/58
s 10
f 10/50/54 16/54/59 33/55/60 29/51/55
s 6
f 20/56/61 23/57/62 37/27/63 36/26/64
s 7
f 24/58/65 19/59/66 35/60/67 38/61/68
s 6
f 8/62/69 17/53/57 34/18/58 39/30/70
s 10
f 16/54/59 9/63/71 40/64/72 33/55/60
s 6
f 14/38/38 20/56/61 36/26/64 27/3/39
s 7
f 19/59/66 15/39/41 28/42/44 35/60/67
s 6
f 23/57/62 8/62/69 39/30/70 37/27/63
s 7
f 9/63/73 24/58/65 38/61/68 40/64/74
s 9
f 41/46/50 3/65/75 32/66/76 42/47/51
s 1
f 29/51/77 43/13/13 88/16/16 89/52/78
f 33/55/79 44/17/17 43/13/13 29/51/77
f 40/64/80 45/29/29 44/17/17 33/55/79
f 38/61/81 46/28/28 45/29/29 40/64/80
f 35/60/82 47/25/25 46/28/28 38/61/81
f 28/42/83 48/4/4 47/25/25 35/60/82
f 92/41/84 93/1/1 48/4/4 28/42/83
s 5
f 1/67/85 50/33/33 49/36/36 25/68/86
s 7
f 51/69/87 1/67/88 25/68/89 52/70/90
s 1
f 25/68/91 49/36/92 53/71/93 52/70/94
f 49/36/92 26/35/95 54/72/96 53/71/93
s 6
f 5/34/97 55/73/98 54/72/99 26/35/100
s 2
f 72/74/101 2/75/102 56/76/103 71/77/104
f 64/78/105 57/79/106 4/80/107 63/81/108
s 6
f 59/82/109 58/83/110 6/45/111 31/48/112
s 1
f 60/84/113 59/82/114 31/48/115 42/47/116
f 61/85/117 60/84/113 42/47/116 32/66/118
s 10
f 3/65/119 62/86/120 61/85/121 32/66/122
s 2
f 74/87/123 64/78/105 63/81/108 73/88/124
f 75/89/125 65/9/9 84/12/12 85/90/126
f 76/91/127 66/19/19 65/9/9 75/89/125
f 77/92/128 67/31/31 66/19/19 76/91/127
f 78/93/129 68/24/24 67/31/31 77/92/128
f 79/94/130 69/21/21 68/24/24 78/93/129
f 80/95/131 70/8/8 69/21/21 79/94/130
f 96/96/132 97/5/5 70/8/8 80/95/131
f 82/97/133 72/74/101 71/77/104 81/98/134
f 58/83/135 74/87/123 73/88/124 6/45/136
f 11/43/137 75/89/125 85/90/126 86/44/138
f 17/53/139 76/91/127 75/89/125 11/43/137
f 8/62/140 77/92/128 76/91/127 17/53/139
f 23/57/141 78/93/129 77/92/128 8/62/140
f 20/56/142 79/94/130 78/93/129 23/57/141
f 14/38/143 80/95/131 79/94/130 20/56/142
f 95/37/144 96/96/132 80/95/131 14/38/143
f 5/34/145 82/97/133 81/98/134 55/73/146
f 84/12/12 83/11/11 57/79/106 64/78/105
f 85/90/126 84/12/12 64/78/105 74/87/123
f 86/44/138 85/90/126 74/87/123 58/83/135
s 6
f 87/15/47 86/44/46 58/83/110 59/82/109
s 1
f 88/16/16 87/15/147 59/82/148 60/84/113
f 89/52/78 88/16/16 60/84/113 61/85/117
s 10
f 62/86/120 90/49/53 89/52/56 61/85/121
s 7
f 91/40/42 51/69/87 52/70/90 92/41/43
s 1
f 52/70/94 53/71/93 93/1/1 92/41/84
f 53/71/93 54/72/149 94/2/150 93/1/1
s 6
f 55/73/98 95/37/37 94/2/40 54/72/99
s 2
f 55/73/146 81/98/134 96/96/132 95/37/144
f 81/98/134 71/77/104 97/5/5 96/96/132
f 71/77/104 56/76/103 98/6/6 97/5/5
